/* XPM */
static const char *const icon_addpointlight[] = {
/* Values */
"24 24 5 1",
/* Colors */
"  c None",
"! c #000000",
"@ c #c4c4c4",
"# c #727272",
"$ c #e6e3e3",
/* Pixels */
"                        ",
"                        ",
"                        ",
"            !           ",
"     @      !           ",
"     !!          @!     ",
"     @!    !!    !!     ",
"         !!##!!  !      ",
"        !#@@@@#!        ",
"       !#@##@@@#!       ",
"      !!@#@@@@$@!! @@   ",
"   !! !#@#@@@@$@#! !!   ",
"   @@ !#@#@@@@@@#!      ",
"      !!@#@@@@@@!!      ",
"       !#@#@@@@#!       ",
"        !@@@@@#!@       ",
"        !#@@@@#         ",
"         !!!!!!         ",
"         !@$@@!         ",
"         !!!!!!         ",
"          !!@@!         ",
"          !!!!          ",
"                        ",
"                        "
};
