/* XPM */
static const char *const sprite_engine_spotlight[] = {
/* Values */
"24 24 4 1",
/* Colors */
"  c None",
"! c #000000",
"@ c #808080",
"# c #9f9f9f",
/* Pixels */
"                        ",
"                        ",
"                        ",
"              !@##!!    ",
"              !@##!!    ",
"              !@##@!    ",
"              !@##@!    ",
"             !!!!@!!    ",
"            !@!!!!      ",
"          !!@#!!#@      ",
"        !!!@##@###!     ",
"       !@@@!!@####!     ",
"        !@##@!@#@!      ",
"    !!  !!###@!@!!      ",
"        !!@###!!!       ",
"        !!!@##@!        ",
"     !    !!##@!        ",
"    !     !!!@@!        ",
"      !!     !!         ",
"     !   ! !!           ",
"     !  !! !            ",
"        !  !            ",
"                        ",
"                        "
};
