/* XPM */
static const char *const icon_gizmo_move[] = {
/* Values */
"24 24 17 1",
/* Colors */
"  c None",
". c black",
"+ c #53607b",
"@ c #697a9c",
"# c #5c6b89",
"$ c #6c7ea1",
"% c #49566d",
"& c #7285aa",
"= c #6f81a5",
"- c #657697",
"; c #4c5972",
"> c #596885",
", c #505d77",
"' c #5f6f8e",
") c #566480",
"! c #627393",
"~ c #434e64",
/* Pixels */
"                        ",
"                        ",
"                        ",
"                        ",
"           ..           ",
"          .&=.          ",
"         .&&&=.         ",
"        .@==@-#.        ",
"        ...@)...        ",
"      ..  .-;.  ..      ",
"     .).  .@).  .!.     ",
"    .=@....=@....$>.    ",
"   .==@--@==@--@$!,~.   ",
"    .-);;)@@);;+>,~.    ",
"     .%....-;....~.     ",
"      ..  .-;.  ..      ",
"       .  .@).  .       ",
"        ...=-...        ",
"        .!=&@+~.        ",
"         .'-#%.         ",
"          .;%.          ",
"           ..           ",
"                        ",
"                        "
};
