/* XPM */
static char *icon_newempty[] = {
/* Values */
"24 24 4 1",
/* Colors */
"  c None",
". c #ba2e2e",
"+ c #2eba35",
"@ c #2e47ba",
/* Pixels */
"                        ",
"                        ",
"                        ",
"                        ",
"           +            ",
"           +            ",
"           +            ",
"           +            ",
"           +            ",
"           +     @      ",
"    ...    +    @       ",
"       ... +  @@        ",
"          @+@@          ",
"        @@ +..          ",
"       @   +  ...       ",
"     @@    +     ...    ",
"    @      +            ",
"           +            ",
"           +            ",
"           +            ",
"                        ",
"                        ",
"                        ",
"                        "
};
