/* XPM */
static const char *const icon_delete[] = {
/* Values */
"24 24 6 1",
/* Colors */
"  c None",
"! c #3f3384",
"@ c #383258",
"# c #63589c",
"$ c #4e4775",
"% c #8a81be",
/* Pixels */
"                        ",
"                        ",
"                        ",
"         !!!!!          ",
"    @!!!!####!!!!@      ",
"    @#####$$$$$$$@      ",
"     !!!!!!!!!!!!       ",
"                        ",
"    !!!!!!!!!!!!!!      ",
"    !############!      ",
"    !!$$$$$$$$$$!!      ",
"     !$@@@@@@@@$!       ",
"     !$@%%@%@%@$!       ",
"     !$@%%@%@%@$!       ",
"     !$@%%@%@%@$!       ",
"     !$@%%@%@%@$!       ",
"     !$@%%@%@%@$!       ",
"     !$@%%@%@%@$!       ",
"     !$@@@@@@@@$!       ",
"     !$$$$$$$$$$!       ",
"      !!!!!!!!!!        ",
"                        ",
"                        ",
"                        "
};
