/* XPM */
static const char *const icon_addambientlight[] = {
/* Values */
"24 24 3 1",
/* Colors */
"  c None",
"! c #212121",
"@ c #666565",
/* Pixels */
"                        ",
"                        ",
"                        ",
"                        ",
"           !!           ",
"          !@@!          ",
"      !@ !!@@!! @!      ",
"      @!   !!   !@      ",
"        !@ !! @!        ",
"      ! @! !! !@ !      ",
"     !!   !!!!   !!     ",
"    !@@!!!!@@!!!!@@!    ",
"    !@@!!!!@@!!!!@@!    ",
"     !!   !!!!   !!     ",
"      ! @! !! !@ !      ",
"        !@ !! @!        ",
"      @!   !!   !@      ",
"      !@ !!@@!! @!      ",
"          !@@!          ",
"           !!           ",
"                        ",
"                        ",
"                        ",
"                        "
};
