/* XPM */
static const char *const icon_save[] = {
/* Values */
"24 24 51 1",
/* Colors */
"  c None",
". c #cbcbcb",
"+ c #aeaab7",
"@ c #b8b8b8",
"# c #464c42",
"$ c #43483f",
"% c #20231d",
"& c #21261f",
"= c black",
"- c #9f9ba7",
"; c #484d44",
"> c #4b5147",
", c #252922",
"' c #232821",
") c #444a40",
"! c #222620",
"~ c #43493f",
"{ c #bababa",
"] c #a9a5b2",
"^ c #a09ca8",
"( c #4a5046",
"_ c #20241d",
": c #20241e",
"< c #454b41",
"[ c #444940",
"} c #4e554a",
"| c #474c43",
"1 c #a4a1ad",
"2 c #474d43",
"3 c #c0c0c0",
"4 c #282d25",
"5 c #535a4e",
"6 c #272b24",
"7 c #c6c6c6",
"8 c #c1c1c1",
"9 c #a19da9",
"0 c #bdbdbd",
"a c #484e44",
"b c #51574c",
"c c #50574c",
"d c #d1d1d1",
"e c #4d5349",
"f c #50564b",
"g c #4f554b",
"h c #494f45",
"i c #4c5247",
"j c #51584d",
"k c #262a23",
"l c #242821",
"m c #22261f",
"n c #21251f",
/* Pixels */
"                        ",
"                        ",
"                        ",
"    ================    ",
"    =}=.dddddd.7{=|=    ",
"    =}=.++++++]1{=|=    ",
"    =}=.dddddd.7{=|=    ",
"    =}=.dddddd.7{=|=    ",
"    =}=.++++++]1{=|=    ",
"    =e=7......78@=|=    ",
"    =e=81111119-@=2=    ",
"    =}=033333300{=;=    ",
"    =f=-^^^^^^^9^=a=    ",
"    =g============h=    ",
"    =i>h(i}fbffbjgh=    ",
"    =a|)#h}j5jcfb}h=    ",
"    =|===========}h=    ",
"    =#=====646k,=ea=    ",
"    =<=====,k,l'=(|=    ",
"    =[=====m!m&n=#)=    ",
"    =$=====_:__%=~==    ",
"    ===============     ",
"                        ",
"                        "
};
