/* XPM */
static const char *const icon_open[] = {
/* Values */
"24 24 65 1",
/* Colors */
"  c None",
". c #e6d13f",
"+ c #edd841",
"@ c #e8d340",
"# c #aba263",
"$ c #767044",
"% c #e1cd3e",
"& c #7f7849",
"= c #b0a766",
"- c #a89f61",
"; c #847d4c",
"> c #ddc93d",
", c #a9a062",
"' c #857d4d",
") c #999159",
"! c #ebd641",
"~ c #bfae34",
"{ c #b4aa68",
"] c #a69c60",
"^ c #746d43",
"( c #978e57",
"_ c #999058",
": c #d1be39",
"< c #b2a967",
"[ c #f2dc42",
"} c #6c673f",
"| c #d3c03a",
"1 c #6b653e",
"2 c #a39a5e",
"3 c #67623c",
"4 c #e3cf3e",
"5 c #d6c33b",
"6 c #d7c43b",
"7 c #766f44",
"8 c #b5ab68",
"9 c black",
"0 c #d9c53c",
"a c #afa565",
"b c #8c8451",
"c c #8e8652",
"d c #7e7748",
"e c #716b41",
"f c #d0bd39",
"g c #f0da42",
"h c #8d8652",
"i c #ada364",
"j c #a49b5f",
"k c #a2995d",
"l c #726c42",
"m c #e5d03f",
"n c #efd942",
"o c #b1a766",
"p c #ead540",
"q c #817a4b",
"r c #7a7346",
"s c #948c56",
"t c #9e955b",
"u c #e0cc3d",
"v c #b6ac69",
"w c #938b55",
"x c #9b9259",
"y c #6f6940",
"z c #ccba38",
"A c #9c945a",
"B c #f5df43",
/* Pixels */
"                        ",
"                        ",
"                        ",
"                 9999   ",
"                99  99  ",
"                     9  ",
"  9999999999999    99999",
"  9%!.4%%%%44>z9    999 ",
"  9![.%u%%%mp+@599   9  ",
"  9@p6:f|||6%nB+0~9     ",
"  9@!>9999999999999999  ",
"  9.gp9,###ia<88<#A'}9  ",
"  9mB9{8vvvvvvvv8i)&9   ",
"  9%B9vvvvvvvvv8=kbl9   ",
"  949{vvvvvvvvv<-wr9    ",
"  9m98vvvvvvvv8ixq19    ",
"  99-######ia<o]c^9     ",
"  99s((((((_tj2(d39     ",
"  9e7$$$$$$rqbh;y9      ",
"  9999999999999999      ",
"                        ",
"                        ",
"                        ",
"                        "
};
