/* XPM */
static const char *const icon_newcylinder[] = {
/* Values */
"24 24 54 1",
/* Colors */
"  c None",
". c #ababab",
"+ c #cacaca",
"@ c #b0b0b0",
"# c black",
"$ c #a9a9a9",
"% c #b4b4b4",
"& c #c9c9c9",
"= c #d1d1d1",
"- c #bbbbbb",
"; c #9d9d9d",
"> c #9a9a9a",
", c #cbcbcb",
"' c #9f9f9f",
") c #9e9e9e",
"! c #bcbcbc",
"~ c #a4a4a4",
"{ c #9b9b9b",
"] c #cfcfcf",
"^ c #a2a2a2",
"( c #c8c8c8",
"_ c #a5a5a5",
": c #cccccc",
"< c #8c8c8c",
"[ c #b5b5b5",
"} c #d6d6d6",
"| c #848484",
"1 c #989898",
"2 c #939393",
"3 c #a6a6a6",
"4 c #cdcdcd",
"5 c #818181",
"6 c #a0a0a0",
"7 c #d7d7d7",
"8 c #7d7d7d",
"9 c #8d8d8d",
"0 c #8b8b8b",
"a c #9c9c9c",
"b c #b9b9b9",
"c c #d2d2d2",
"d c #b3b3b3",
"e c #969696",
"f c #aaaaaa",
"g c #a8a8a8",
"h c #a7a7a7",
"i c #c3c3c3",
"j c #c4c4c4",
"k c #d4d4d4",
"l c #a1a1a1",
"m c #8a8a8a",
"n c #a3a3a3",
"o c #c7c7c7",
"p c #cecece",
"q c #bdbdbd",
/* Pixels */
"                        ",
"         ######         ",
"       ##85||58##       ",
"      #me'^~~^'19#      ",
"      #e^$f..f$~{#      ",
"     #0;g......f^2#     ",
"     #<ahf......~e#     ",
"     ##>n~~~~~~3^##     ",
"     #>#6')aaa)^#n#     ",
"     #%i########jb#     ",
"     #b&]+ojjjo,(b#     ",
"     #!4k=]ppp]=,-#     ",
"     #!p77777777p!#     ",
"     #!p77777777p!#     ",
"     #!p7qqqqqq7p!#     ",
"     #![q777777q[!#     ",
"     #_p77777777p_#     ",
"     #_p77777777p_#     ",
"     #_p7777777}:n#     ",
"     #l&k}7777}cj{#     ",
"      #!(:pppp:j[#      ",
"       #db!!!!b@#       ",
"        ########        ",
"                        "
};
