/* XPM */
static const char *const icon_bulletcollision[] = {
/* Values */
"24 24 31 1",
/* Colors */
"  c None",
". c #d1da11",
"+ c #cfe812",
"@ c #c9e812",
"# c #bfe412",
"$ c #dce412",
"% c #bfe512",
"& c #a5e512",
"= c #a6e412",
"- c #e1ea12",
"; c #9ae812",
"> c #e0e912",
", c #dde512",
"' c #d7e011",
") c #dfe812",
"! c #d4dc11",
"~ c #d2db11",
"{ c #bee412",
"] c #c2e412",
"^ c #d6df11",
"( c #dbea12",
"_ c #bee512",
": c #c3e412",
"< c #95e412",
"[ c #d3dc11",
"} c #bae412",
"| c #dce612",
"1 c #96e512",
"2 c #d5de11",
"3 c #d4dd11",
"4 c #dde612",
/* Pixels */
"                        ",
"                        ",
"                        ",
"                        ",
"           ^22          ",
"         ^'-(^^2        ",
"     ;^^'------>^3      ",
"    3^>--------->)3~    ",
"    43))>---->>>22!~    ",
"    _ [3+^>>>)3!!!!~    ",
"    :   !3@)3![~~  ~    ",
"    ]     !![~     ~    ",
"    #      ,       ~    ",
"    {      $       ~    ",
"    }      $       ~    ",
"    %      $       ~    ",
"    ,      ,      $.    ",
"    [[,    |1    ~.     ",
"    < ~[   |  &~.       ",
"        ~[ 4,~~=        ",
"          ~~.           ",
"                        ",
"                        ",
"                        "
};
