/* XPM */
static const char *const icon_newtorus[] = {
/* Values */
"24 24 58 1",
/* Colors */
"  c None",
"! c #000000",
"@ c #ababab",
"# c #b1b1b1",
"$ c #b7b7b6",
"% c #bbbcbb",
"^ c #bfbfbf",
"& c #c2c3c2",
"* c #c4c4c4",
"( c #c3c3c2",
") c #bfbfc1",
"- c #b7b7b7",
"= c #a0a0a0",
"+ c #aeaeae",
"_ c #bdbdbd",
"1 c #cacaca",
"2 c #cfcfcf",
"3 c #d4d4d4",
"4 c #d5d5d6",
"5 c #b7b6b7",
"6 c #a4a4a4",
"7 c #b2b2b2",
"8 c #bbbbbb",
"9 c #c3c3c3",
"0 c #d1d1d1",
"q c #d6d6d6",
"Q c #dadada",
"w c #dcdede",
"W c #dedcde",
"e c #9f9f9f",
"E c #a6a6a6",
"r c #b8b8b8",
"R c #c1bfc1",
"t c #c8c8c8",
"T c #dcdbdc",
"y c #a8a8a8",
"Y c #b9b9b9",
"u c #cacbca",
"U c #c2c3c3",
"i c #a8abab",
"I c #bbbcbc",
"o c #cdcdcd",
"O c #dcdcde",
"p c #d5d6d5",
"P c #a2a2a2",
"[ c #bcbcbc",
"{ c #e3e3e3",
"} c #dedede",
"] c #cfcdcd",
"a c #ababa8",
"A c #bcbbbb",
"s c #d5d5d5",
"S c #dedcdc",
"d c #e7e7e7",
"D c #dcdcdc",
"f c #e1e1e1",
"F c #e3e3e5",
"g c #e5e3e5",
/* Pixels */
"                        ",
"                        ",
"                        ",
"                        ",
"                        ",
"                        ",
"                        ",
"      !!!!!!!!!!!!      ",
"    !!@#$%^&**()%-!!    ",
"   !=+-_*12344321*_5!   ",
"   !678910qQwWQq019%!   ",
"  !eErRt2!!!!!!Tq2t^r!  ",
"  !=yY&u!      !Q31UY!  ",
"  !=iI*o!      !Opo*8!  ",
"  !P@[*oq!!!!!!{}q]*[!  ",
"   !aA*osS{dddd{Dso*!   ",
"   !yY(13QfFddgfQ31U!   ",
"    !!8910qQDOQq01!!    ",
"      !!!!!!!!!!!!      ",
"                        ",
"                        ",
"                        ",
"                        ",
"                        "
};
