/* XPM */
static char *icon_duplicate[] = {
/* Values */
"24 24 54 1",
/* Colors */
"  c None",
". c #b5b177",
"+ c #d3ce8b",
"@ c #b1ad74",
"# c #bcb87c",
"$ c #beba7d",
"% c #bbb77b",
"& c #d0cb89",
"= c #9f9c69",
"- c black",
"; c #c0bc7f",
"> c #c3bf80",
", c #b8b479",
"' c #c7c383",
") c #a8a46f",
"! c #c6c283",
"~ c #c4bf81",
"{ c #a6a36d",
"] c #aeaa73",
"^ c #c5c081",
"( c #cfcb88",
"_ c #c6c182",
": c #a09d69",
"< c #d2cd8a",
"[ c #b0ac74",
"} c #a5a26d",
"| c #c0bb7e",
"1 c #aaa670",
"2 c #aba770",
"3 c #ceca88",
"4 c #a7a36e",
"5 c #cdc887",
"6 c #cdc987",
"7 c #ada972",
"8 c #b2ae75",
"9 c #bab67b",
"0 c #ccc786",
"a c #bfba7d",
"b c #aca871",
"c c #c2be80",
"d c #b6b278",
"e c #c8c484",
"f c #b4b077",
"g c #a29e6a",
"h c #cac585",
"i c #afab73",
"j c #9e9b68",
"k c #b3af76",
"l c #b7b378",
"m c #b9b57a",
"n c #d1cc89",
"o c #c1bd7f",
"p c #cbc685",
"q c #bdb97c",
/* Pixels */
"                        ",
"                        ",
"                        ",
"   ------------         ",
"   -j}2]@@]2}:-         ",
"   -}b8,mm,k])-         ",
"   -28m|cc;#l@-         ",
"   -],|^ee!>$,-         ",
"   -@9ce0------------   ",
"   -@mce5-35h!o#di4:-   ",
"   -],|!p-((30e~a,i{-   ",
"   -18%o!-6(&&6h^$.b-   ",
"   -}7.#c-03n+<(h>9[-   ",
"   -={].%-'0&++n5_#8-   ",
"   -------o'0&<&0^#8-   ",
"         -9o!060ecm[-   ",
"         -8m|~_^c#fb-   ",
"         -2@l%q#mf]}-   ",
"         -g4b@88[b}=-   ",
"         ------------   ",
"                        ",
"                        ",
"                        ",
"                        "
};
