/* XPM */
static const char *const icon_newstaticmesh[] = {
/* Values */
"24 24 19 1",
/* Colors */
"  c None",
". c black",
"+ c #cccccc",
"@ c #afafaf",
"# c #c0c0c0",
"$ c #d2d2d2",
"% c #c1c1c1",
"& c #d1d1d1",
"= c #bcbcbc",
"- c #b8b8b8",
"; c #acacac",
"> c #c7c7c7",
", c #b1b1b1",
"' c #b6b6b6",
") c #d8d8d8",
"! c #c6c6c6",
"~ c #cacaca",
"{ c #a8a8a8",
"] c #b3b3b3",
/* Pixels */
"                        ",
"                        ",
"                        ",
"   ..................   ",
"   .>%,.+&&+%,.+&+%,.   ",
"   .%=@.!~~!=@.!~!=@.   ",
"   .,@{.]'']@{.]']@{.   ",
"   ..................   ",
"   .+&&+>%.+&&+%,.=,.   ",
"   .!~~!%=.!~~!=@.-@.   ",
"   .]''],@.]'']@{.;{.   ",
"   ..................   ",
"   .>%,.+&&+%,.+&+%,.   ",
"   .%=@.!~~!=@.!~!=@.   ",
"   .,@{.]'']@{.]']@{.   ",
"   ..................   ",
"   .$))$!].$))$!].#].   ",
"   .$))$!].$))$!].#].   ",
"   .!~~!=@.!~~!=@.-@.   ",
"   .]'']@{.]'']@{.;{.   ",
"   ..................   ",
"                        ",
"                        ",
"                        "
};
