/* XPM */
static const char *const icon_gizmo_select[] = {
/* Values */
"24 24 18 1",
/* Colors */
"  c None",
". c #d3d3d3",
"+ c #f4f4f4",
"@ c #cdcdcd",
"# c #dfdfdf",
"$ c #d8d8d8",
"% c #d5d5d5",
"& c #c9c9c9",
"= c #e2e2e2",
"- c #dbdbdb",
"; c #e3e3e3",
"> c #f1f1f1",
", c #eaeaea",
"' c #c6c6c6",
") c #eeeeee",
"! c black",
"~ c #e5e5e5",
"{ c #d0d0d0",
/* Pixels */
"                        ",
"                        ",
"                        ",
"      !                 ",
"      !!!               ",
"      !>~!              ",
"      !+>,!!            ",
"      !+++>~!           ",
"      !++++>,!!         ",
"      !++++++>~!        ",
"      !+++++++>,!!      ",
"      !+++++++>,~$!     ",
"      !+++++>,=%{@'!    ",
"      !+++++)#{'!!!!    ",
"      !++>)>>~!!        ",
"      !+>~-~>>=!        ",
"      !>~.&!;>,%!       ",
"      !=.'! !,)-!       ",
"      !@'!   !=.'!      ",
"      !!!    !@'!       ",
"              !!        ",
"                        ",
"                        ",
"                        "
};
