/* XPM */
static const char *const icon_saveas[] = {
/* Values */
"24 24 53 1",
/* Colors */
"  c None",
". c #41463d",
"+ c #4b5147",
"@ c #21251f",
"# c #afafaf",
"$ c #484e44",
"% c #d1d1d1",
"& c #4d5349",
"= c #4e544a",
"- c #cbcbcb",
"; c #4d5348",
"> c #9895a0",
", c #454b41",
"' c #c0c0c0",
") c #a29eaa",
"! c #4a5046",
"~ c #4e5449",
"{ c #232821",
"] c #a7a3b0",
"^ c #9c99a4",
"( c #1f221c",
"_ c #1c201a",
": c #585f53",
"< c #474c43",
"[ c #4f554b",
"} c #a9a5b2",
"| c #c1c1c1",
"1 c #42473e",
"2 c #444940",
"3 c #474d43",
"4 c #4e554a",
"5 c #9a97a2",
"6 c #1c1f1a",
"7 c #c9c9c9",
"8 c #3d423a",
"9 c black",
"0 c #43483f",
"a c #3f453c",
"b c #222620",
"c c #3c4038",
"d c #494f45",
"e c #a19da9",
"f c #4c5248",
"g c #aeaab7",
"h c #b8b8b8",
"i c #464c42",
"j c #1f231d",
"k c #b1b1b1",
"l c #c6c6c6",
"m c #4b5046",
"n c #1e221c",
"o c #95929d",
"p c #bcbcbc",
/* Pixels */
"                        ",
"                        ",
"                        ",
"   99999999999999       ",
"   949-%%%%%%-'d9       ",
"   949-gggggg}'d9       ",
"   949-99999999999999   ",
"   949-9:9%gggg]ek9.9   ",
"   9&9l9:9%%%%%7|k9.9   ",
"   9&9|9:9%%%%%7|k9.9   ",
"   9;9h9:9%]]]])^#9.9   ",
"   9;9o9:9%||||ph#9.9   ",
"   9!999:9%5555>>k919   ",
"   9$<i9:9555555^5909   ",
"   9<999:999999999929   ",
"   9i999:2,3m&&&=[f29   ",
"   9,999:8a2m[[~&=+29   ",
"   92999:999999999d09   ",
"   90999:9999{{b@9,.9   ",
"   99999:9999jj(n9a89   ",
"       9:9999___69c99   ",
"       9999999999999    ",
"                        ",
"                        "
};
