/* XPM */
static const char *const icon_newcube[] = {
/* Values */
"24 24 59 1",
/* Colors */
"  c None",
". c black",
"+ c #b9b9b9",
"@ c #cfcfcf",
"# c #cdcdcd",
"$ c #787878",
"% c #dedede",
"& c #d7d7d7",
"= c #d1d1d1",
"- c #cccccc",
"; c #c6c6c6",
"> c #989898",
", c #595959",
"' c #cecece",
") c #b3b3b3",
"! c #bdbdbd",
"~ c #6b6b6b",
"{ c #6a6a6a",
"] c #5d5d5d",
"^ c #bbbbbb",
"( c #8f8f8f",
"_ c #6c6c6c",
": c #b6b6b6",
"< c #636363",
"[ c #d4d4d4",
"} c #e3e3e3",
"| c #a2a2a2",
"1 c #bcbcbc",
"2 c #a8a8a8",
"3 c #b4b4b4",
"4 c #c7c7c7",
"5 c #616161",
"6 c #bababa",
"7 c #a1a1a1",
"8 c #a6a6a6",
"9 c #a7a7a7",
"0 c #7b7b7b",
"a c #707070",
"b c #c1c1c1",
"c c #686868",
"d c #bfbfbf",
"e c #c0c0c0",
"f c #acacac",
"g c #b1b1b1",
"h c #ababab",
"i c #c2c2c2",
"j c #5a5a5a",
"k c #666666",
"l c #b2b2b2",
"m c #b8b8b8",
"n c #adadad",
"o c #7a7a7a",
"p c #c9c9c9",
"q c #c4c4c4",
"r c #747474",
"s c #afafaf",
"t c #646464",
"u c #737373",
"v c #d8d8d8",
/* Pixels */
"                        ",
"                        ",
"                        ",
"        .............   ",
"       .lllbd^m)f|(..   ",
"      .:;::qb!^mg>.5.   ",
"     .lbblld!^!^8.t5.   ",
"    .1n11fh+6!bd.~t5.   ",
"   .22:::983+dq.r~t5.   ",
"   ............0r~t5.   ",
"   .%%%%%4i@&#.0r~t5.   ",
"   .}}}}}#;=&#.0r~t5.   ",
"   .}}}}}#;=&#.ou{t5.   ",
"   .}}}}}#;=&-.$ac<5.   ",
"   .}}}}}#;b;p.{<]j,.   ",
"   .}}}}=%&=[i._k<,.    ",
"   .}}}=}%&@'+.k<,.     ",
"   .%%%#%v=4qs.<5.      ",
"   .==b=='4d+8.5.       ",
"   .ggeeed^:l7..        ",
"   ............         ",
"                        ",
"                        ",
"                        "
};
