/* XPM */
static const char *const icon_newsphere[] = {
/* Values */
"24 24 86 1",
/* Colors */
"  c None",
". c #8b8b8b",
"+ c #939393",
"@ c #747474",
"# c #868686",
"$ c #616161",
"% c #737373",
"& c #cecece",
"= c #5e5e5e",
"- c #9d9d9d",
"; c #b4b4b4",
"> c #bbbbbb",
", c #454545",
"' c #c9c9c9",
") c #7a7a7a",
"! c #969696",
"~ c #9e9e9e",
"{ c #8f8f8f",
"] c #d8d8d8",
"^ c #cfcfcf",
"( c #464646",
"_ c #8a8a8a",
": c #a6a6a6",
"< c #adadad",
"[ c #c1c1c1",
"} c #989898",
"| c #7e7e7e",
"1 c #acacac",
"2 c #444444",
"3 c #9f9f9f",
"4 c #5f5f5f",
"5 c #7d7d7d",
"6 c #3d3d3d",
"7 c #c6c6c6",
"8 c #b9b9b9",
"9 c #ababab",
"0 c #bababa",
"a c #7b7b7b",
"b c #888888",
"c c #767676",
"d c black",
"e c #c5c5c5",
"f c #4f4f4f",
"g c #b0b0b0",
"h c #cacaca",
"i c #787878",
"j c #434343",
"k c #bfbfbf",
"l c #d7d7d7",
"m c #b2b2b2",
"n c #929292",
"o c #2e2e2e",
"p c #c0c0c0",
"q c #cdcdcd",
"r c #949494",
"s c #575757",
"t c #a9a9a9",
"u c #999999",
"v c #848484",
"w c #9a9a9a",
"x c #676767",
"y c #d5d5d5",
"z c #8d8d8d",
"A c #aeaeae",
"B c #7f7f7f",
"C c #565656",
"D c #d3d3d3",
"E c #858585",
"F c #cccccc",
"G c #777777",
"H c #c4c4c4",
"I c #656565",
"J c #8c8c8c",
"K c #c3c3c3",
"L c #b8b8b8",
"M c #515151",
"N c #838383",
"O c #b3b3b3",
"P c #a8a8a8",
"Q c #4e4e4e",
"R c #a5a5a5",
"S c #7c7c7c",
"T c #727272",
"U c #242424",
"V c #606060",
"W c #333333",
/* Pixels */
"                        ",
"                        ",
"                        ",
"          dddd          ",
"       ddCvwN%2d        ",
"      d:J<9'Kw{xdd      ",
"     d3OOyyD&eL.)=d     ",
"     dyl]]lly&Km-Ed     ",
"    dn]]]]]]lD'0RzMd    ",
"    4;]]]]]]lyFk9+xo    ",
"   da]]]]]]]]y&pA!56d   ",
"   d-]]]]]]]]y^[A}|fd   ",
"   dgl]]]]]]lyqk1rSsd   ",
"   dnl]]]]]]lDh>P{G(d   ",
"    Qyll]]lly^H;~bTU    ",
"    dPDyyyyD^70trBsd    ",
"    dEhq^&F'K81wb@,d    ",
"     dtk[pk0mPu_iVd     ",
"     dd.zA9R-n#$ddd     ",
"      dddjI.cCWddd      ",
"         dddddd         ",
"                        ",
"                        ",
"                        "
};
