/* XPM */
static const char *const icon_redo[] = {
/* Values */
"24 24 43 1",
/* Colors */
"  c None",
". c #6e7292",
"+ c #777c9e",
"@ c #6d7190",
"# c #6c7090",
"$ c #727798",
"% c #717596",
"& c #8c92bb",
"= c #949ac5",
"- c #878cb3",
"; c #737899",
"> c #898fb6",
", c #8187ac",
"' c #7f84a9",
") c #6f7494",
"! c #9399c3",
"~ c #9298c2",
"{ c #848ab0",
"] c #878db4",
"^ c #888db5",
"( c #767b9e",
"_ c #8a8fb7",
": c #8388af",
"< c #8f95bf",
"[ c #8b90b9",
"} c #7a7fa3",
"| c #757a9c",
"1 c #6f7394",
"2 c #8c92ba",
"3 c #797ea1",
"4 c #6d7291",
"5 c #707595",
"6 c #8d93bc",
"7 c black",
"8 c #9399c4",
"9 c #8f95be",
"0 c #9197c1",
"a c #6e7393",
"b c #9096c0",
"c c #7b80a4",
"d c #8a90b8",
"e c #7d82a6",
"f c #7a7fa2",
/* Pixels */
"                        ",
"                        ",
"                        ",
"              7         ",
"              77        ",
"              7_7       ",
"              7b&7      ",
"          77777!~27     ",
"        778=====!9-7    ",
"       78======8~2:37   ",
"      7<<<<<b0~0&{c;a7  ",
"     7>]----^d6[{}$.77  ",
"    7,ef3333c':,}$477   ",
"   77($%)55)$|3+$477    ",
"   7%1@77777777)477     ",
"   7#77       7#77      ",
"   77         777       ",
"   7          77        ",
"              7         ",
"                        ",
"                        ",
"                        ",
"                        ",
"                        "
};
