/* XPM */
static const char *const icon_collision[] = {
/* Values */
"24 24 14 1",
/* Colors */
"  c None",
". c #2eea12",
"+ c #2bdd11",
"@ c #2ee812",
"# c #2bdb11",
"$ c #2de412",
"% c #2cde11",
"& c #2ee912",
"= c #2cdf11",
"- c #2de612",
"; c #2bdc11",
"> c #2bda11",
", c #2ce011",
"' c #2de512",
/* Pixels */
"                        ",
"                        ",
"                        ",
"                        ",
"           =%%          ",
"         =,..==%        ",
"      ==,......&=+      ",
"    +=&.........&@+#    ",
"    -+@@&....&&&%%;#    ",
"    ' ;+@=&&&@+;;;;#    ",
"    $   ;+@@+;;##  #    ",
"    $     ;;;#     #    ",
"    $      '       #    ",
"    $      $       #    ",
"    $      $       #    ",
"    '      $       #    ",
"    '      '      $>    ",
"    ;;'    -     #>     ",
"      #;   -  '#>       ",
"        #; -'##$        ",
"          ##>           ",
"                        ",
"                        ",
"                        "
};
