/* XPM */
static const char *const icon_gizmo_scale[] = {
/* Values */
"24 24 64 1",
/* Colors */
"  c None",
". c #707c9e",
"+ c #525a74",
"@ c #323848",
"# c #65708f",
"$ c #20232d",
"% c #282c39",
"& c #4b546b",
"= c #6d799b",
"- c #697494",
"; c #616c8a",
"> c #313746",
", c #6a7696",
"' c #4c546c",
") c #6b7798",
"! c #717da0",
"~ c #7481a5",
"{ c #707c9f",
"] c #7683a8",
"^ c #495067",
"( c #555e78",
"_ c #58627d",
": c #464e63",
"< c #5a637f",
"[ c #2b2f3d",
"} c #687394",
"| c #677292",
"1 c #6c789a",
"2 c #363c4d",
"3 c #333848",
"4 c #4e566e",
"5 c #7581a6",
"6 c #5d6784",
"7 c black",
"8 c #6c7899",
"9 c #697596",
"0 c #707da0",
"a c #5c6683",
"b c #7480a4",
"c c #5d6885",
"d c #727fa2",
"e c #485067",
"f c #4f5870",
"g c #6f7b9e",
"h c #282c38",
"i c #6d799a",
"j c #626d8c",
"k c #383f50",
"l c #313645",
"m c #2f3442",
"n c #6e7a9c",
"o c #6a7697",
"p c #7380a4",
"q c #373d4e",
"r c #7783a8",
"s c #5e6885",
"t c #727ea2",
"u c #616b88",
"v c #5f6987",
"w c #657090",
"x c #646f8e",
"y c #515a73",
"z c #606b89",
"A c #697495",
/* Pixels */
"                        ",
"                        ",
"                        ",
"                        ",
"    7777777  7777777    ",
"    7u_&:<7  7)f4++7    ",
"    7tp=q7   77~p)z7    ",
"    7=g8[7    77{Av7    ",
"    7w-9}77 777noxa7    ",
"    7a7x}o777hn|;7_7    ",
"    77 77n!7[pij7 77    ",
"        775]rbk7        ",
"        77pb~pl7        ",
"    7  77=1igt0@7  7    ",
"    77779#;27n!!m777    ",
"    7771#c7777.b{7$7    ",
"    7!d8;77  73bt)z7    ",
"    7pp)>7   777gAv7    ",
"    7..A%7    7,-xa7    ",
"    7w6ye77  7s^'y(7    ",
"    7777777  7777777    ",
"                        ",
"                        ",
"                        "
};
