/* XPM */
static const char *const icon_gizmo_rotate[] = {
/* Values */
"24 24 30 1",
/* Colors */
"  c None",
". c #6f7b9d",
"+ c #727ea2",
"@ c #5d6885",
"# c #687394",
"$ c #697495",
"% c #58617d",
"& c #606b89",
"= c #59637f",
"- c #5e6986",
"; c #5d6784",
"> c #6a7697",
", c #5e6885",
"' c #727fa2",
") c #606a88",
"! c #697494",
"~ c #707c9e",
"{ c #6f7b9e",
"] c #687393",
"^ c #657090",
"( c #636e8d",
"_ c #5c6683",
": c #5f6987",
"< c #5b6582",
"[ c #6b7798",
"} c #58627d",
"| c #6e7a9c",
"1 c #5b6481",
"2 c black",
"3 c #646f8e",
/* Pixels */
"                        ",
"                        ",
"                        ",
"                        ",
"                  2     ",
"        22222222 222    ",
"      22(&@_)3[.2#:2    ",
"     22-;222222~{!:2    ",
"    2)_22     2>$3_2    ",
"    2,22     2,):_}2    ",
"   22_2      222222     ",
"   2_=2                 ",
"   2}2            222   ",
"   222            2;2   ",
"                 2(;2   ",
"     222222      2&22   ",
"    2~'.])2     22_2    ",
"    2~+|]2     22<%2    ",
"    2$[!^222222,122     ",
"    2:)2@______=22      ",
"    222 22222222        ",
"     2                  ",
"                        ",
"                        "
};
