/* XPM */
static char *icon_new[] = {
/* Values */
"24 24 4 1",
/* Colors */
"  c None",
". c #aaaaaa",
"+ c black",
"@ c #efefef",
/* Pixels */
"                        ",
"                        ",
"                        ",
"     +++++++++++        ",
"     +@@@@@@@@+++       ",
"     +@@@@@@@@+.+       ",
"     +@@@@@@@@++.++     ",
"     +@@@@@@@@@++++     ",
"     +@@@@@@@@@@@@+     ",
"     +@@@@@@@@@@@@+     ",
"     +@@@@@@@@@@@@+     ",
"     +@@@@@@@@@@@@+     ",
"     +@@@@@@@@@@@@+     ",
"     +@@@@@@@@@@@@+     ",
"     +@@@@@@@@@@@@+     ",
"     +@@@@@@@@@@@@+     ",
"     +@@@@@@@@@@@@+     ",
"     +@@@@@@@@@@@@+     ",
"     +@@@@@@@@@@@@+     ",
"     +@@@@@@@@@@@@+     ",
"     +@@@@@@@@@@@@+     ",
"     ++++++++++++++     ",
"                        ",
"                        "
};
