/* XPM */
static const char *const icon_undo[] = {
/* Values */
"24 24 46 1",
/* Colors */
"  c None",
". c #8a8fb7",
"+ c #888db5",
"@ c #7a7fa2",
"# c #7d82a6",
"$ c #707595",
"% c #787da0",
"& c #6e7393",
"= c #9399c4",
"- c #8e94bd",
"; c #8a90b8",
"> c #7f84a9",
", c #767b9e",
"' c black",
") c #9298c2",
"! c #8187ac",
"~ c #8186ac",
"{ c #7c81a5",
"] c #9096c0",
"^ c #7a7fa3",
"( c #8388af",
"_ c #717697",
": c #9298c3",
"< c #8c92ba",
"[ c #7b80a4",
"} c #8b90b9",
"| c #727798",
"1 c #949ac5",
"2 c #878db4",
"3 c #797ea1",
"4 c #777c9e",
"5 c #717596",
"6 c #8489af",
"7 c #757a9c",
"8 c #8287ad",
"9 c #8f95bf",
"0 c #9197c1",
"a c #8c92bb",
"b c #848ab0",
"c c #898fb6",
"d c #6f7494",
"e c #6c7090",
"f c #8b91b9",
"g c #9399c3",
"h c #8d93bc",
"i c #878cb3",
/* Pixels */
"                        ",
"                        ",
"                        ",
"         '              ",
"        ''              ",
"       '8'              ",
"      '9f'              ",
"     'gg0'''''          ",
"    'g11111=:]''        ",
"   '<)=111111=)a'       ",
"  '[ba0)0]99999-.'      ",
"  ''^b}h;+iiii2cc6'     ",
"   ''^!(>[3333@#!~{'    ",
"    ''437|d$$d5|,%4''   ",
"     ''5&''''''''5_&'   ",
"      ''e'       ''e'   ",
"       '''         ''   ",
"        ''          '   ",
"         '              ",
"                        ",
"                        ",
"                        ",
"                        ",
"                        "
};
