/* XPM */
static const char *const icon_skeleton[] = {
/* Values */
"24 24 2 1",
/* Colors */
"  c None",
"! c #5ecf57",
/* Pixels */
"                        ",
"                        ",
"                        ",
"          !!!           ",
"         !!!!!          ",
"          !!!           ",
"           !            ",
"         !!!!!          ",
"     !  !!!!!!!  !      ",
"     !!!!  !  !!!!      ",
"           !            ",
"           !            ",
"         !   !          ",
"         !! !!          ",
"          ! !           ",
"            !           ",
"         !   !          ",
"         !   !          ",
"            !           ",
"          ! !           ",
"        !!   !!         ",
"                        ",
"                        ",
"                        "
};
