/* XPM */
static const char *const icon_new[] = {
/* Values */
"24 24 30 1",
/* Colors */
"  c None",
". c #e8e8e8",
"+ c #e9e9e9",
"@ c #e3e3e3",
"# c #dbdbdb",
"$ c #e5e5e5",
"% c #d7d7d7",
"& c #c9c9c9",
"= c #e4e4e4",
"- c #d3d3d3",
"; c #dddddd",
"> c #c6c6c6",
", c #898989",
"' c #d4d4d4",
") c #bebebe",
"! c #bababa",
"~ c black",
"{ c #e1e1e1",
"] c #d1d1d1",
"^ c #e0e0e0",
"( c #cacaca",
"_ c #c1c1c1",
": c #efefef",
"< c #d5d5d5",
"[ c #ececec",
"} c #eeeeee",
"| c #c3c3c3",
"1 c #cbcbcb",
"2 c #d9d9d9",
"3 c #d8d8d8",
/* Pixels */
"                        ",
"                        ",
"                        ",
"     ~~~~~~~~~~~        ",
"     ~^...+=2(~~~       ",
"     ~.::::+{<~,~       ",
"     ~.::::[.^~~,~~     ",
"     ~.::::}[+$~~~~     ",
"     ~.::::::}[@')~     ",
"     ~.::::::::.3_~     ",
"     ~.::::::::.3_~     ",
"     ~.::::::::.3_~     ",
"     ~.::::::::.3_~     ",
"     ~.::::::::.3_~     ",
"     ~.::::::::.3_~     ",
"     ~.::::::::.3_~     ",
"     ~.::::::::.3_~     ",
"     ~.::::::::.3_~     ",
"     ~^.......+$%_~     ",
"     ~-3333332;#])~     ",
"     ~)______|&1>!~     ",
"     ~~~~~~~~~~~~~~     ",
"                        ",
"                        "
};
