/* XPM */
static const char *const icon_adddirectionallight[] = {
/* Values */
"24 24 3 1",
/* Colors */
"  c None",
"! c #989898",
"@ c #373737",
/* Pixels */
"                        ",
"                        ",
"                        ",
"           !!           ",
"       !   !@   !       ",
"       !@  !!  !@       ",
"               @!       ",
"    !              !    ",
"    !@!   @@@@          ",
"     !! @@!!!!@@ !!     ",
"        @!!!!!!@        ",
"       @@!!!!!!@@       ",
"    @! @!!!!!!!!@ !@    ",
"       @@!!!!!!@@  !!   ",
"        @!!!!!!@        ",
"     !  @@!!!!@@ !!     ",
"     @    @@@@@  !@     ",
"    !              !    ",
"       !       !        ",
"       @!  !!  @        ",
"       !   @    !       ",
"           !!           ",
"                        ",
"                        "
};
