/* XPM */
static const char *const icon_newcone[] = {
/* Values */
"24 24 34 1",
/* Colors */
"  c None",
". c #919191",
"+ c #8b8b8b",
"@ c #c1c1c1",
"# c #939393",
"$ c #b2b2b2",
"% c #898989",
"& c #aaaaaa",
"= c #a5a5a5",
"- c #a1a1a1",
"; c #9f9f9f",
"> c #7a7a7a",
", c #aeaeae",
"' c #a6a6a6",
") c #868686",
"! c #b5b5b5",
"~ c #6b6b6b",
"{ c #808080",
"] c #c6c6c6",
"^ c #acacac",
"( c #989898",
"_ c #a3a3a3",
": c #afafaf",
"< c #9c9c9c",
"[ c black",
"} c #b0b0b0",
"| c #c0c0c0",
"1 c #bababa",
"2 c #c4c4c4",
"3 c #9a9a9a",
"4 c #8d8d8d",
"5 c #b8b8b8",
"6 c #7e7e7e",
"7 c #bebebe",
/* Pixels */
"                        ",
"                        ",
"           [            ",
"           [            ",
"          [~[           ",
"          [{[           ",
"         [%34[          ",
"         [3&;[          ",
"         [=5}.[         ",
"        [.}|1-[         ",
"        [-12@}#[        ",
"       [.}@]21=[        ",
"       [-12]]@5-[       ",
"      [.}&,,,^&$([      ",
"      [4_2]]]]]'.[      ",
"     [6:@]]]]]]@:6[     ",
"     [)!2]]]]]]2!)[     ",
"     [)!2]]]]]]2!)[     ",
"     [>&72]]]]27&>[     ",
"      [#&!5555!&#[      ",
"       [+(<<<<(+[       ",
"        [[[[[[[[        ",
"                        ",
"                        "
};
