/* XPM */
static const char *const icon_reparent[] = {
/* Values */
"24 24 94 2",
/* Colors */
"   c None",
".  c #9a6e6e",
".. c #d99b9b",
".+ c #e09f9f",
".@ c #563e3e",
".# c #d79999",
".$ c #e9a6a6",
".% c #735252",
".& c #6e4e4e",
".= c #634646",
".- c #9c6f6f",
".; c #8f6565",
".> c #db9c9c",
"., c #d89a9a",
".' c #e6a4a4",
".) c #765555",
".! c #8a6262",
".~ c #825c5c",
".{ c #7d5a5a",
".] c #966b6b",
".^ c #b48080",
".( c #ce9393",
"._ c #946969",
".: c #eca8a8",
".< c #876060",
".[ c #a27373",
".} c #cb9090",
".| c #a17272",
".1 c #8b6363",
".2 c #ac7b7b",
".3 c #c48c8c",
".4 c #976b6b",
".5 c #b68282",
".6 c #b07d7d",
".7 c black",
".8 c #805b5b",
".9 c #e4a2a2",
".0 c #b37f7f",
".a c #e6a3a3",
".b c #755353",
".c c #825d5d",
".d c #6a4b4b",
".e c #aa7979",
".f c #9d7070",
".g c #6d4e4e",
".h c #a47575",
".i c #745353",
".j c #443131",
".k c #372727",
".l c #896262",
".m c #9e7070",
".n c #b17e7e",
".o c #ab7a7a",
".p c #a57575",
".q c #e8a5a5",
".r c #745252",
".s c #725151",
".t c #906666",
".u c #c68d8d",
".v c #7e5a5a",
".w c #8a6161",
".x c #d99a9a",
".y c #463232",
".z c #765454",
".A c #cc9191",
".B c #b58181",
".C c #c78e8e",
".D c #df9f9f",
".E c #c38b8b",
".F c #bd8686",
".G c #412e2e",
".H c #b07e7e",
".I c #dd9d9d",
".J c #da9b9b",
".K c #c18a8a",
".L c #a17373",
".M c #c28a8a",
".N c #865f5f",
".O c #503939",
".P c #bc8686",
".Q c #ae7c7c",
".R c #d09494",
".S c #d29696",
".T c #cf9494",
".U c #e5a3a3",
".V c #eba7a7",
".W c #c18989",
".X c #5c4141",
".Y c #ba8484",
".Z c #9f7171",
".` c #af7c7c",
"+  c #bb8585",
"+. c #855f5f",
"++ c #715151",
/* Pixels */
"                                                ",
"                                                ",
"                                                ",
"                    .7.7.7.7                    ",
"              .7.7.@.<.[.;.~.O.7                ",
"            .7.m.!.`.H.S.T.e.h.{.7.7            ",
"          .7.].`.^.>.I.I.J.#.T.p. .8.7          ",
"          .7.(...+.9.U.U.9.D.x.T.E.0.7          ",
"        .7.w.#.+.a.q.$.i.r.a.D.#.}.P.%.7        ",
"        .@.Q.>.9.q.V.b.b.b.r.9.J.T.W._.y        ",
"      .7++.S.I.U.$.b.:.z.b.$.s.I.S.E.0.X.7      ",
"      .7.t.S.I.U.$.V.:.z.b.$.U.I.S.E.0.b.7      ",
"      .7.|.R.>.9.$.V.V.b.b.q.9.>.R.K.n.c.7      ",
"      .7.~.A.,.+.'.$.$.i.r.a.+.#.A.F.2.d.7      ",
"        .j.3.R...+.9.U.s.s.+...R.E.B.p.k        ",
"        .7.4.C.R.,.>.I.&.g.#.R.u.Y.2.v.7        ",
"        .7.)+ .3.A.R.S.S.T.}.E.Y.Q.L.=.7        ",
"          .7.-.5.F.M.E.E.K.P.^.o.Z+..7          ",
"          .7.7.N.1.n.0.0.6.o.h.{.7.7.7          ",
"            .7.7.7.y.&.f.l.d.G.7.7.7            ",
"                  .7.7.7.7.7.7                  ",
"                                                ",
"                                                ",
"                                                "
};
